<svg width="167" height="167" viewBox="0 0 167 167" fill="none" xmlns="http://www.w3.org/2000/svg">
<path fill-rule="evenodd" clip-rule="evenodd" d="M26.2498 21.3814L28.9623 24.3212C23.1007 29.7296 17.9421 36.1054 13.7384 43.3864C9.5348 50.6673 6.59242 58.3227 4.83946 66.1031L0.93728 65.224C2.7779 57.0544 5.86669 49.0206 10.2743 41.3864C14.682 33.7521 20.0951 27.0602 26.2498 21.3814ZM21.3816 141.523L24.3214 138.811C29.7297 144.672 36.1056 149.831 43.3865 154.034C50.6674 158.238 58.3228 161.18 66.1033 162.933L65.2241 166.836C57.0546 164.995 49.0208 161.906 41.3865 157.499C33.7522 153.091 27.0603 147.678 21.3816 141.523ZM141.523 146.391C147.678 140.713 153.091 134.021 157.499 126.386C161.906 118.752 164.995 110.718 166.836 102.549L162.934 101.67C161.181 109.45 158.238 117.105 154.035 124.386C149.831 131.667 144.672 138.043 138.811 143.452L141.523 146.391ZM146.391 26.2496L143.452 28.9621C138.043 23.1005 131.667 17.9419 124.387 13.7383C117.106 9.53467 109.45 6.59229 101.67 4.83933L102.549 0.937148C110.718 2.77776 118.752 5.86655 126.387 10.2742C134.021 14.6819 140.713 20.0949 146.391 26.2496Z" fill="#E11D2E"/>
</svg>
