<svg width="250" height="250" viewBox="0 0 250 250" fill="none" xmlns="http://www.w3.org/2000/svg">
<path fill-rule="evenodd" clip-rule="evenodd" d="M239.836 174.451L237.999 173.659C244.433 158.738 247.999 142.288 247.999 125C247.999 107.711 244.433 91.2609 237.999 76.3397L239.836 75.5478C246.376 90.7144 249.999 107.434 249.999 125C249.999 142.565 246.376 159.285 239.836 174.451ZM174.451 10.1626L173.659 11.9991C158.738 5.56511 142.287 1.99951 124.999 1.99951C107.711 1.99951 91.2605 5.56511 76.3393 11.9991L75.5474 10.1626C90.714 3.62274 107.433 -0.000488281 124.999 -0.000488281C142.565 -0.000488281 159.284 3.62274 174.451 10.1626ZM10.1622 75.5478C3.62231 90.7144 -0.000915527 107.434 -0.000915527 125C-0.000915527 142.565 3.62231 159.285 10.1622 174.451L11.9987 173.659C5.56468 158.738 1.99908 142.288 1.99908 125C1.99908 107.711 5.56468 91.2609 11.9987 76.3397L10.1622 75.5478ZM75.5474 239.836L76.3393 238C91.2605 244.434 107.711 248 124.999 248C142.287 248 158.738 244.434 173.659 238L174.451 239.836C159.284 246.376 142.565 250 124.999 250C107.433 250 90.714 246.376 75.5474 239.836Z" fill="#E11D2E"/>
</svg>
