<svg width="215" height="215" viewBox="0 0 215 215" fill="none" xmlns="http://www.w3.org/2000/svg">
<path fill-rule="evenodd" clip-rule="evenodd" d="M215 107.5C215 103.265 214.755 99.0864 214.278 94.9786L211.298 95.3243C211.761 99.3176 212 103.381 212 107.5H215ZM214.278 120.022L211.298 119.677C208.324 145.314 196.07 168.125 177.972 184.663L179.995 186.878C198.608 169.87 211.218 146.402 214.278 120.022ZM120.022 214.279L119.676 211.299C115.683 211.762 111.62 212 107.5 212V215C111.735 215 115.914 214.756 120.022 214.279ZM94.9778 214.279L95.3235 211.299C69.6867 208.325 46.875 196.07 30.3368 177.972L28.1222 179.996C45.1306 198.609 68.5983 211.219 94.9778 214.279ZM0.721265 120.022L3.70128 119.677C3.23802 115.683 2.99976 111.62 2.99976 107.5H-0.000244141C-0.000244141 111.736 0.244724 115.915 0.721265 120.022ZM186.877 35.005L184.663 37.0287C168.125 18.9307 145.313 6.67608 119.676 3.70201L120.022 0.721996C146.401 3.78223 169.869 16.3923 186.877 35.005ZM107.5 0.000488281C103.264 0.000488281 99.0857 0.245456 94.9778 0.721997L95.3235 3.70201C99.3168 3.23875 103.38 3.00049 107.5 3.00049V0.000488281ZM35.0043 28.1229L37.028 30.3375C18.93 46.8757 6.67535 69.6874 3.70128 95.3243L0.721264 94.9786C3.7815 68.599 16.3916 45.1314 35.0043 28.1229Z" fill="#E11D2E"/>
</svg>
