<svg width="522" height="547" viewBox="0 0 522 547" fill="none" xmlns="http://www.w3.org/2000/svg">
<g opacity="0.300003">
<g opacity="0.300003">
<path opacity="0.300003" d="M521.978 525.308C521.978 534.546 405.3 542.034 261.371 542.034C117.442 542.034 0.763672 534.546 0.763672 525.308C0.763672 516.07 117.442 508.582 261.371 508.582C405.3 508.582 521.978 516.07 521.978 525.308Z" fill="#000072"/>
</g>
</g>
<path d="M480.738 504.386C470.395 516.381 455.223 523.129 439.379 523.129H83.3614C67.5183 523.129 52.3455 516.381 42.0033 504.386C36.2896 497.754 32.0655 490.368 29.2245 482.81C29.2139 482.81 29.2139 482.81 29.2139 482.8C20.2762 459.085 24.8302 433.636 39.088 424.482C63.0282 409.091 81.4888 427.899 81.4888 427.899C83.5317 423.098 86.2981 418.937 89.3944 415.371C101.056 401.896 117.399 396.765 117.399 396.765C108.515 345.792 128.348 299.608 128.348 299.608C128.348 299.608 177.218 336.553 261.37 336.553C345.523 336.553 394.393 299.608 394.393 299.608C394.393 299.608 414.226 345.792 405.342 396.765C405.342 396.765 431.506 404.983 441.252 427.899C441.252 427.899 459.713 409.091 483.653 424.482C502.454 436.563 504.38 476.978 480.738 504.386Z" fill="#B11313"/>
<g opacity="0.300003">
<g opacity="0.300003">
<path opacity="0.300003" d="M95.6822 474.893C98.9806 442.95 81.4883 429.166 81.4883 429.166C83.5312 424.366 86.2976 420.204 89.3939 416.639C116.526 449.102 95.6822 474.893 95.6822 474.893Z" fill="#000072"/>
</g>
</g>
<g opacity="0.300003">
<g opacity="0.300003">
<path opacity="0.300003" d="M427.154 474.893C423.856 442.95 441.348 429.166 441.348 429.166C439.305 424.366 436.539 420.204 433.443 416.639C406.31 449.102 427.154 474.893 427.154 474.893Z" fill="#000072"/>
</g>
</g>
<g opacity="0.300003">
<g opacity="0.300003">
<path opacity="0.300003" d="M429.924 501.706C427.389 501.074 424.776 500.857 422.179 501.143C418.479 501.549 412.113 502.179 402.776 502.879C388.722 503.933 376.449 493.369 375.489 479.304C375.077 473.261 375.981 468.57 376.309 467.118C372.639 482.812 365.862 497.27 361.73 505.2C340.755 506.074 314.188 506.786 281.336 506.995C279.564 443.494 316.44 383.951 316.44 383.951C259.938 429.166 206.391 383.951 206.391 383.951C243.674 450.15 241.733 504.237 241.733 504.237L248.012 507.03C212.136 506.879 183.444 506.132 161.1 505.2C156.968 497.271 150.191 482.812 146.521 467.118C146.862 468.628 147.826 473.643 147.284 480.038C146.118 493.802 133.834 503.913 120.064 502.88C110.721 502.18 104.353 501.549 100.651 501.143C98.054 500.857 95.4406 501.074 92.9055 501.706C52.3967 511.795 29.9492 484.966 29.2266 484.077C32.0675 491.635 36.2916 499.021 42.0053 505.653C52.3475 517.648 67.5203 524.396 83.3635 524.396H261.415H439.467C455.31 524.396 470.483 517.648 480.825 505.653C486.538 499.021 490.763 491.635 493.603 484.077C492.881 484.966 470.433 511.795 429.924 501.706Z" fill="#000072"/>
</g>
</g>
<g opacity="0.300003">
<g opacity="0.300003">
<path opacity="0.300003" d="M146.524 467.119C146.454 466.813 146.41 466.646 146.41 466.646C146.447 466.804 146.487 466.961 146.524 467.119Z" fill="#000072"/>
</g>
</g>
<g opacity="0.300003">
<g opacity="0.300003">
<path opacity="0.300003" d="M376.311 467.119C376.348 466.961 376.388 466.804 376.424 466.646C376.424 466.646 376.38 466.813 376.311 467.119Z" fill="#000072"/>
</g>
</g>
<path d="M261.336 520.706H439.389C454.325 520.706 468.382 514.341 477.956 503.243C490.324 488.905 496.423 469.051 493.874 451.427C492.38 441.109 487.933 432.88 481.671 428.854C460.498 415.238 444.557 431.077 443.889 431.757C443.027 432.636 441.784 433.029 440.572 432.797C439.361 432.569 438.345 431.749 437.863 430.617C428.886 409.504 404.488 401.636 404.243 401.559C402.477 401.005 401.395 399.228 401.713 397.404C408.779 356.896 397.108 318.996 392.639 306.578C379.259 315.329 333.217 341.514 261.379 341.514C189.541 341.514 143.498 315.329 130.119 306.578C125.65 318.996 113.978 356.896 121.044 397.404C121.362 399.228 120.28 401.005 118.514 401.559C118.273 401.636 93.8358 409.588 84.8941 430.617C84.4119 431.749 83.3958 432.569 82.1858 432.797C80.9762 433.028 79.7305 432.636 78.868 431.757C78.2019 431.088 62.1238 415.324 41.0862 428.854C34.8247 432.88 30.3769 441.109 28.8843 451.427C26.3345 469.051 32.4332 488.906 44.8013 503.243C54.3755 514.341 68.4326 520.706 83.3687 520.706H261.336ZM439.389 528.086H83.3687C66.2858 528.086 50.1926 520.788 39.2163 508.064C25.4929 492.156 18.7362 470.049 21.5833 450.37C23.4085 437.752 28.9182 427.906 37.0972 422.646C56.5627 410.13 72.9868 418.304 80.2042 423.395C89.3589 406.627 106.345 398.403 113.277 395.626C105.557 345.409 124.154 301.307 124.966 299.418C125.413 298.376 126.315 297.598 127.41 297.308C128.508 297.017 129.675 297.247 130.579 297.931C131.057 298.29 179.586 334.134 261.379 334.134C343.171 334.134 391.701 298.29 392.181 297.929C393.086 297.247 394.256 297.018 395.349 297.309C396.444 297.6 397.345 298.377 397.792 299.418C398.603 301.307 417.2 345.409 409.48 395.626C416.413 398.403 433.399 406.627 442.553 423.395C449.769 418.304 466.193 410.126 485.66 422.646C493.839 427.906 499.349 437.751 501.175 450.37C504.022 470.048 497.265 492.156 483.541 508.064C472.565 520.788 456.471 528.086 439.389 528.086" fill="#000072"/>
<path d="M83.6346 426.162C84.0394 426.438 84.2279 426.59 84.5067 426.796C84.7712 426.992 84.9844 427.179 85.2257 427.373C85.705 427.76 86.1099 428.168 86.5441 428.571C86.9884 428.966 87.3544 429.403 87.7534 429.825C88.1552 430.245 88.5323 430.678 88.886 431.125C90.3556 432.888 91.5913 434.787 92.6932 436.748C94.9017 440.671 96.369 444.9 97.3889 449.158C98.3834 453.434 98.7507 457.775 98.7513 462.062C98.759 464.204 98.52 466.34 98.3742 468.451C98.0563 470.56 97.709 472.651 97.2676 474.713C97.1834 475.106 96.7963 475.357 96.403 475.273C96.1042 475.209 95.888 474.97 95.838 474.687L95.8295 474.635C95.4682 472.564 95.243 470.522 94.9713 468.499L94.4427 465.488C94.2492 464.492 94.1771 463.487 93.9124 462.509C93.4168 460.554 93.1512 458.577 92.526 456.688C92.2536 455.737 92.0399 454.773 91.7433 453.838L90.792 451.061C89.4799 447.396 87.8768 443.892 85.9454 440.652C85.4426 439.858 84.9719 439.037 84.4254 438.285L83.6355 437.13L82.7883 436.034C82.2512 435.278 81.6281 434.613 81.045 433.931C80.7443 433.607 80.446 433.256 80.1425 432.967C79.9967 432.819 79.841 432.644 79.7035 432.515C79.5807 432.396 79.3796 432.208 79.366 432.181L78.5699 430.581C77.7151 428.864 78.4137 426.778 80.1308 425.923C81.294 425.344 82.6304 425.481 83.6346 426.162Z" fill="#000072"/>
<path d="M443.305 432.181C443.291 432.208 443.09 432.396 442.968 432.515C442.83 432.644 442.674 432.819 442.529 432.968C442.225 433.256 441.927 433.607 441.626 433.931C441.043 434.614 440.42 435.278 439.883 436.034L439.036 437.131L438.246 438.285C437.699 439.037 437.229 439.859 436.726 440.653C434.794 443.892 433.191 447.397 431.879 451.061L430.928 453.838C430.631 454.773 430.418 455.737 430.145 456.688C429.52 458.577 429.255 460.554 428.759 462.51C428.494 463.487 428.422 464.492 428.229 465.488L427.7 468.499C427.429 470.523 427.203 472.564 426.842 474.635L426.833 474.686C426.764 475.082 426.387 475.347 425.991 475.278C425.69 475.226 425.464 474.995 425.404 474.713C424.962 472.651 424.615 470.56 424.297 468.451C424.151 466.34 423.912 464.204 423.92 462.062C423.921 457.775 424.288 453.434 425.282 449.158C426.303 444.9 427.77 440.671 429.978 436.748C431.08 434.787 432.316 432.888 433.786 431.125C434.139 430.679 434.516 430.245 434.918 429.825C435.317 429.403 435.683 428.966 436.127 428.571C436.561 428.168 436.966 427.761 437.445 427.373C437.687 427.179 437.9 426.992 438.165 426.796C438.443 426.59 438.632 426.438 439.037 426.162C440.622 425.081 442.782 425.491 443.862 427.077C444.594 428.151 444.642 429.49 444.104 430.577L443.305 432.181Z" fill="#000072"/>
<path d="M121.072 397.6L121.373 400.549L121.748 403.846C121.881 404.97 122.057 406.097 122.154 407.281C122.262 408.461 122.326 409.684 122.266 411.005L122.266 411.011C122.257 411.218 122.081 411.379 121.873 411.37C121.798 411.366 121.73 411.342 121.673 411.301C120.59 410.538 119.657 409.662 118.85 408.708C118.024 407.76 117.347 406.726 116.688 405.666C116.043 404.599 115.456 403.49 114.945 402.328C114.704 401.742 114.455 401.152 114.262 400.531C114.157 400.224 114.063 399.907 113.979 399.582C113.888 399.231 113.826 398.974 113.747 398.476C113.427 396.463 114.8 394.57 116.813 394.251C118.826 393.93 120.718 395.303 121.037 397.317C121.048 397.382 121.056 397.446 121.063 397.51L121.072 397.6Z" fill="#000072"/>
<path d="M409.096 398.476C409.017 398.974 408.956 399.231 408.865 399.582C408.781 399.907 408.686 400.224 408.582 400.531C408.389 401.153 408.139 401.742 407.899 402.328C407.388 403.49 406.801 404.599 406.156 405.666C405.496 406.726 404.82 407.76 403.994 408.708C403.187 409.662 402.254 410.538 401.17 411.301C401.001 411.421 400.766 411.38 400.646 411.21C400.603 411.149 400.581 411.08 400.578 411.01L400.578 411.005C400.518 409.684 400.582 408.461 400.69 407.281C400.787 406.097 400.963 404.97 401.095 403.846L401.471 400.549L401.772 397.6L401.779 397.522C401.986 395.494 403.798 394.017 405.826 394.224C407.854 394.43 409.33 396.243 409.123 398.271C409.116 398.336 409.106 398.413 409.096 398.476Z" fill="#000072"/>
<path d="M138.97 434.174C138.97 434.174 122.085 421.074 117.411 398.038C117.411 398.038 107.696 393.127 100.982 406.416C100.982 406.416 108.727 446.985 146.414 466.646C146.414 466.646 140.969 445.76 138.97 434.174" fill="#0096F2"/>
<path d="M104.882 406.944C106.403 413.139 114.594 441.428 140.662 458.943C139.012 452.248 136.826 442.996 135.573 436.147C131.662 432.758 118.935 420.493 114.259 400.884C112.136 400.518 108.313 400.945 104.882 406.944ZM146.411 470.335C145.829 470.335 145.244 470.197 144.706 469.918C105.883 449.664 97.6865 408.836 97.3565 407.108C97.2037 406.308 97.3201 405.479 97.688 404.752C101.882 396.451 107.365 394.098 111.227 393.586C115.5 393.015 118.719 394.566 119.072 394.745C120.079 395.255 120.799 396.197 121.023 397.304C125.351 418.637 141.075 431.138 141.233 431.262C141.955 431.826 142.447 432.643 142.602 433.547C144.551 444.845 149.927 465.507 149.981 465.714C150.349 467.126 149.85 468.622 148.71 469.532C148.043 470.063 147.23 470.335 146.411 470.335" fill="#000072"/>
<path d="M383.874 434.174C383.874 434.174 400.759 421.074 405.433 398.038C405.433 398.038 415.148 393.127 421.862 406.416C421.862 406.416 414.117 446.985 376.43 466.646C376.43 466.646 381.876 445.76 383.874 434.174" fill="#0096F2"/>
<path d="M387.266 436.147C386.012 442.997 383.826 452.248 382.176 458.944C408.243 441.429 416.434 413.144 417.957 406.943C415.879 403.301 413.421 401.27 410.642 400.902C409.862 400.798 409.148 400.842 408.567 400.933C403.882 420.515 391.173 432.76 387.266 436.147ZM376.427 470.335C375.609 470.335 374.796 470.063 374.129 469.532C372.988 468.622 372.49 467.125 372.858 465.714C372.912 465.507 378.287 444.845 380.236 433.546C380.392 432.64 380.88 431.826 381.605 431.262C381.763 431.138 397.487 418.637 401.816 397.304C402.04 396.197 402.759 395.255 403.767 394.745C404.119 394.567 407.337 393.015 411.611 393.586C415.473 394.098 420.957 396.451 425.15 404.752C425.518 405.48 425.635 406.308 425.482 407.108C425.152 408.836 416.956 449.664 378.133 469.918C377.595 470.197 377.01 470.335 376.427 470.335" fill="#000072"/>
<path d="M189.842 339.918C189.842 339.918 196.182 357.896 194.357 384.125L215.246 402.307C215.246 402.307 220.706 370.618 211.408 344.3L189.842 339.918Z" fill="#0096F2"/>
<path d="M198.157 382.538L212.441 394.97C213.408 384.858 214.233 365.032 208.595 347.492L195.029 344.735C196.782 352.033 199.122 365.459 198.157 382.538ZM215.251 405.997C214.374 405.997 213.511 405.684 212.829 405.09L191.94 386.908C191.068 386.149 190.602 385.023 190.682 383.869C192.425 358.804 186.426 341.315 186.366 341.141C185.927 339.888 186.194 338.494 187.067 337.494C187.939 336.495 189.282 336.043 190.58 336.301L212.145 340.682C213.416 340.94 214.457 341.847 214.889 343.069C224.399 369.986 219.114 401.601 218.885 402.933C218.659 404.246 217.742 405.336 216.487 405.782C216.084 405.926 215.666 405.997 215.251 405.997" fill="#000072"/>
<path d="M332.997 339.918C332.997 339.918 326.657 357.896 328.481 384.125L307.592 402.307C307.592 402.307 302.133 370.618 311.431 344.3L332.997 339.918Z" fill="#0096F2"/>
<path d="M314.242 347.492C308.594 365.064 309.422 384.873 310.393 394.974L324.68 382.538C323.716 365.459 326.056 352.034 327.809 344.736L314.242 347.492ZM307.587 405.997C307.172 405.997 306.754 405.926 306.351 405.783C305.095 405.336 304.179 404.247 303.953 402.934C303.723 401.601 298.439 369.987 307.949 343.069C308.381 341.847 309.422 340.941 310.692 340.683L332.258 336.302C333.56 336.033 334.903 336.494 335.775 337.496C336.646 338.498 336.912 339.891 336.471 341.143C336.375 341.42 330.419 358.88 332.156 383.87C332.236 385.023 331.77 386.149 330.897 386.909L310.009 405.091C309.327 405.684 308.464 405.997 307.587 405.997" fill="#000072"/>
<path d="M240.587 512.87C235.331 538.692 205.368 550.506 184.311 534.679C167.83 522.3 149.731 493.987 138.548 431.902C137.484 425.952 136.473 419.683 135.537 413.094L142.655 406.346L189.844 361.578C189.844 361.578 236.331 433.573 241.481 488.761V488.772C242.289 497.319 242.098 505.462 240.587 512.87Z" fill="#B11313"/>
<g opacity="0.300003">
<g opacity="0.300003">
<path opacity="0.300003" d="M240.588 512.87C235.332 538.692 205.369 550.506 184.312 534.679C167.831 522.3 149.732 493.987 138.549 431.902C122.812 422.418 117.407 398.033 117.407 398.033C110.619 365.654 118.45 335.809 118.45 335.809C116.96 375.22 132.597 394.02 139.046 400.055C140.844 401.737 142.1 403.905 142.647 406.305C142.65 406.319 142.653 406.332 142.656 406.346C154.179 457.351 173.481 519.49 201.485 523.939C228.522 528.229 240.173 492.998 241.482 488.772C242.29 497.319 242.099 505.462 240.588 512.87Z" fill="#000072"/>
</g>
</g>
<path d="M193.885 358.135C199.258 363.989 203.507 370.519 207.359 377.265C209.271 380.646 211.014 384.114 212.747 387.588C214.48 391.062 216.177 394.555 217.83 398.07C224.453 412.122 230.483 426.491 235.492 441.298C240.505 456.087 244.542 471.367 246.014 487.276C246.722 495.218 246.766 503.345 245.417 511.48C245.124 513.477 244.698 515.621 244.041 517.684C243.445 519.764 242.6 521.769 241.685 523.735C239.775 527.634 237.231 531.23 234.196 534.34C228.064 540.499 219.962 544.652 211.36 545.873C207.07 546.544 202.664 546.398 198.389 545.64C194.116 544.828 189.99 543.293 186.219 541.18C184.374 540.089 182.516 538.888 180.913 537.566L178.508 535.593C177.696 534.945 176.999 534.192 176.241 533.495C175.509 532.776 174.729 532.094 174.039 531.341L171.982 529.075C170.562 527.597 169.384 525.955 168.11 524.379C163.186 517.955 159.258 510.97 155.811 503.848C152.307 496.732 149.628 489.331 147.033 481.934C144.626 474.48 142.432 466.975 140.628 459.394C139.737 455.603 138.779 451.824 138.051 448.004C137.302 444.189 136.404 440.399 135.859 436.552C134.653 428.876 134.087 421.095 134.75 413.203C134.788 412.756 135.18 412.425 135.626 412.463C135.937 412.489 136.192 412.688 136.305 412.957L136.315 412.98C137.848 416.648 139.008 420.348 140.009 424.069C140.994 427.792 142.015 431.492 142.789 435.237C143.529 438.991 144.396 442.706 145.212 446.436C145.987 450.178 146.986 453.855 147.918 457.55C149.803 464.935 152.058 472.196 154.503 479.37C157.125 486.463 159.819 493.545 163.245 500.21C166.6 506.9 170.427 513.321 174.925 519.104C176.086 520.51 177.164 522.006 178.434 523.293L180.275 525.293C180.89 525.957 181.575 526.534 182.22 527.161C182.885 527.76 183.502 528.428 184.205 528.972L186.282 530.648C187.658 531.77 189.064 532.638 190.532 533.506C193.497 535.128 196.692 536.285 199.994 536.888C203.299 537.437 206.7 537.54 210.022 536.984C216.69 535.998 222.962 532.681 227.674 527.908C230.022 525.508 231.992 522.742 233.481 519.727C234.187 518.201 234.859 516.651 235.323 515.023C235.843 513.415 236.176 511.769 236.444 509.956C237.64 502.88 237.652 495.468 237.007 488.077C236.354 480.676 235.04 473.266 233.339 465.922C231.649 458.572 229.536 451.283 227.184 444.061C222.471 429.613 216.711 415.446 210.343 401.553C208.753 398.077 207.12 394.621 205.451 391.181C203.79 387.736 202.041 384.336 200.421 380.868C197.15 373.948 194.068 366.916 191.637 359.48L191.629 359.456C191.399 358.753 191.782 357.998 192.484 357.768C192.998 357.599 193.542 357.761 193.885 358.135Z" fill="#000072"/>
<path d="M148.871 478.579C147.878 478.579 146.887 478.181 146.16 477.393C144.779 475.896 144.871 473.565 146.366 472.182C147.734 470.916 180.452 441.143 230.544 437.397C232.569 437.233 234.345 438.769 234.497 440.801C234.649 442.833 233.125 444.604 231.093 444.756C183.659 448.303 151.689 477.31 151.372 477.602C150.663 478.256 149.765 478.579 148.871 478.579Z" fill="#000072"/>
<path d="M282.255 512.87C287.512 538.692 317.474 550.507 338.531 534.679C355.013 522.301 373.111 493.988 384.294 431.902C385.358 425.952 386.369 419.683 387.305 413.094L380.187 406.346L332.998 361.578C332.998 361.578 286.512 433.573 281.362 488.762V488.772C280.553 497.319 280.745 505.462 282.255 512.87Z" fill="#B11313"/>
<g opacity="0.300003">
<g opacity="0.300003">
<path opacity="0.300003" d="M282.254 512.87C287.51 538.692 317.472 550.506 338.529 534.679C355.011 522.3 373.11 493.987 384.292 431.902C400.029 422.418 405.434 398.033 405.434 398.033C412.223 365.654 404.391 335.809 404.391 335.809C405.882 375.22 390.245 394.02 383.795 400.055C381.998 401.737 380.742 403.905 380.195 406.305C380.191 406.319 380.188 406.332 380.185 406.346C368.662 457.351 349.361 519.49 321.356 523.939C294.319 528.229 282.668 492.998 281.36 488.772C280.551 497.319 280.743 505.462 282.254 512.87Z" fill="#000072"/>
</g>
</g>
<path d="M331.202 359.48C328.771 366.915 325.689 373.948 322.418 380.868C320.797 384.336 319.049 387.736 317.388 391.181C315.719 394.621 314.085 398.077 312.496 401.553C306.128 415.446 300.368 429.613 295.654 444.061C293.303 451.283 291.19 458.572 289.5 465.922C287.799 473.266 286.485 480.675 285.831 488.077C285.187 495.468 285.199 502.88 286.395 509.956C286.663 511.769 286.995 513.415 287.516 515.023C287.979 516.651 288.652 518.201 289.357 519.727C290.847 522.742 292.817 525.507 295.165 527.908C299.876 532.681 306.149 535.998 312.816 536.984C316.139 537.54 319.54 537.437 322.845 536.888C326.147 536.285 329.341 535.128 332.306 533.505C333.775 532.638 335.181 531.77 336.557 530.648L338.634 528.972C339.337 528.428 339.953 527.759 340.619 527.161C341.264 526.534 341.949 525.957 342.564 525.293L344.404 523.293C345.675 522.006 346.752 520.51 347.914 519.103C352.412 513.321 356.239 506.9 359.594 500.21C363.02 493.545 365.714 486.463 368.336 479.37C370.78 472.196 373.036 464.935 374.921 457.55C375.853 453.855 376.852 450.178 377.627 446.436C378.443 442.706 379.31 438.991 380.05 435.237C380.824 431.492 381.845 427.792 382.83 424.069C383.831 420.348 384.991 416.647 386.524 412.98L386.534 412.957C386.706 412.545 387.181 412.35 387.594 412.522C387.882 412.643 388.063 412.912 388.089 413.203C388.752 421.095 388.186 428.876 386.979 436.552C386.435 440.399 385.537 444.189 384.788 448.004C384.06 451.824 383.102 455.603 382.211 459.395C380.407 466.975 378.213 474.48 375.806 481.934C373.211 489.331 370.532 496.732 367.028 503.848C363.58 510.97 359.653 517.955 354.729 524.379C353.455 525.955 352.277 527.597 350.857 529.075L348.8 531.341C348.11 532.094 347.33 532.776 346.598 533.495C345.839 534.192 345.142 534.945 344.33 535.593L341.926 537.566C340.323 538.888 338.465 540.089 336.62 541.18C332.848 543.293 328.722 544.828 324.45 545.639C320.175 546.398 315.769 546.544 311.479 545.873C302.877 544.653 294.775 540.499 288.643 534.34C285.608 531.23 283.064 527.634 281.154 523.735C280.239 521.769 279.394 519.764 278.798 517.684C278.141 515.621 277.714 513.476 277.422 511.48C276.073 503.345 276.117 495.218 276.825 487.276C278.297 471.367 282.334 456.086 287.347 441.298C292.356 426.492 298.386 412.122 305.008 398.069C306.662 394.555 308.359 391.062 310.091 387.588C311.824 384.114 313.568 380.645 315.48 377.265C319.332 370.519 323.58 363.989 328.953 358.135C329.453 357.59 330.299 357.554 330.843 358.054C331.242 358.42 331.368 358.972 331.211 359.455L331.202 359.48Z" fill="#000072"/>
<path d="M373.969 478.582C373.074 478.582 372.177 478.258 371.468 477.602C371.15 477.31 339.18 448.304 291.746 444.756C289.714 444.604 288.191 442.833 288.342 440.801C288.494 438.769 290.267 437.235 292.295 437.397C342.388 441.143 375.105 470.917 376.474 472.183C377.969 473.566 378.061 475.901 376.678 477.397C375.951 478.183 374.962 478.582 373.969 478.582Z" fill="#000072"/>
<path d="M261.473 325.935C357.94 325.935 396.243 283.779 396.243 283.779C396.243 283.779 397.851 287.409 398.633 292.568C399.928 301.11 396.302 309.679 389.397 314.868C374.218 326.275 335.568 348.012 261.423 348.012C187.278 348.012 148.628 326.275 133.449 314.868C126.544 309.679 122.917 301.11 124.213 292.568C124.995 287.409 126.602 283.779 126.602 283.779C126.602 283.779 164.905 325.935 261.373 325.935" fill="#751313"/>
<g opacity="0.300003">
<g opacity="0.300003">
<path opacity="0.300003" d="M398.284 290.59C397.043 295.947 393.935 300.816 389.401 304.224C374.222 315.631 335.571 337.367 261.427 337.367C187.282 337.367 148.631 315.631 133.453 304.224C128.918 300.816 125.81 295.947 124.569 290.59C124.441 291.219 124.321 291.878 124.217 292.567C122.921 301.109 126.547 309.678 133.453 314.868C148.631 326.275 187.282 348.011 261.427 348.011C335.571 348.011 374.222 326.275 389.401 314.868C396.306 309.678 399.932 301.109 398.637 292.567C398.532 291.878 398.412 291.219 398.284 290.59Z" fill="#000072"/>
</g>
</g>
<path d="M261.418 351.702C187.373 351.702 148.068 330.473 131.229 317.818C123.156 311.75 119.068 301.863 120.562 292.015C121.408 286.43 123.151 282.451 123.225 282.285C123.73 281.144 124.777 280.335 126.008 280.137C127.238 279.935 128.488 280.374 129.327 281.297C129.697 281.701 167.935 322.245 261.369 322.245V329.625C181.568 329.625 141.088 301.466 128.352 290.5C128.169 291.309 127.997 292.188 127.855 293.121C126.769 300.281 129.76 307.484 135.66 311.919C151.763 324.02 189.515 344.322 261.418 344.322C333.322 344.322 371.074 324.02 387.177 311.919C393.077 307.484 396.067 300.282 394.982 293.121C394.84 292.188 394.668 291.309 394.484 290.5C381.748 301.466 341.269 329.625 261.468 329.625V322.245C355.219 322.245 393.137 281.706 393.51 281.297C394.349 280.374 395.598 279.937 396.828 280.137C398.059 280.335 399.106 281.144 399.612 282.285C399.686 282.451 401.429 286.43 402.275 292.015C403.769 301.863 399.681 311.751 391.608 317.818C374.769 330.473 335.464 351.702 261.418 351.702Z" fill="#000072"/>
<path d="M126.68 314.977L186.159 450.424" stroke="#000072" stroke-width="3" stroke-miterlimit="10"/>
<path d="M334.098 450.423L394.839 314.977" stroke="#000072" stroke-width="3" stroke-miterlimit="10"/>
<path fill-rule="evenodd" clip-rule="evenodd" d="M257.05 370.289C257.025 370.615 256.828 370.908 256.696 371.229C256.568 371.539 256.451 371.872 256.341 372.198C256.054 373.048 255.785 373.886 255.809 374.987C256.79 375.116 258.027 375.02 258.912 374.896C259.395 375.111 259.706 375.444 260.152 375.684C260.068 375.273 260.471 375.195 260.817 375.078C260.664 375.256 260.425 375.375 260.507 375.714C260.709 375.806 260.741 375.562 260.906 375.532C261.134 375.71 261.423 375.7 261.659 375.532C261.829 375.558 261.783 375.731 261.97 375.745C262.233 375.509 261.857 375.253 261.748 375.078C262.077 375.196 262.451 375.284 262.413 375.654C262.771 375.504 263.207 375.146 263.565 374.896C264.488 375.029 265.668 375.091 266.756 375.017C266.719 373.173 266.065 371.752 265.426 370.319C265.603 370.304 265.602 370.463 265.648 370.531C266.307 371.507 266.894 372.621 267.376 373.805C267.446 373.977 267.564 374.211 267.642 374.441C267.71 374.643 267.854 374.995 267.819 375.108C267.743 375.357 267.143 375.44 267.022 375.654C266.653 375.356 265.59 375.441 264.584 375.411C264.299 375.402 263.917 375.347 263.742 375.381C263.356 375.456 263.187 375.842 262.989 376.048C263.535 376.073 263.966 375.711 264.451 375.684C264.759 375.666 265.209 375.825 265.603 375.896C266.746 376.103 268.021 376.278 269.061 376.502C269.123 374.065 268.208 372.034 266.978 370.38C268.2 371.534 269.023 372.884 269.637 374.472C269.743 374.746 269.833 375.008 269.903 375.29C270 375.687 270.003 376.177 270.301 376.472C269.934 376.746 269.492 376.969 269.105 377.23C268.016 376.785 265.912 376.145 264.141 376.26C263.717 376.287 263.342 376.432 263.033 376.623C263.574 376.771 263.949 376.785 264.673 376.775C264.853 376.772 265.113 376.721 265.249 376.745C265.403 376.771 265.65 376.989 265.869 377.139C267.149 378.014 268.294 378.655 269.814 379.351C270.288 379.569 270.556 379.79 271.099 379.503C271.189 382.379 270.072 384.502 268.706 386.443C268.547 386.669 268.446 386.932 268.174 387.11C269.201 385.453 269.991 383.48 269.991 381.17C269.991 380.927 270.059 380.626 269.991 380.412C269.895 380.109 269.198 379.787 268.794 379.533C267.649 378.81 266.738 378.303 265.471 377.624C265.222 377.491 265.011 377.311 264.806 377.26C264.59 377.206 264.249 377.195 264.008 377.169C263.706 377.136 263.416 377.128 263.166 377.108C263.656 377.468 264.433 377.915 265.116 378.26C265.241 378.337 265.371 378.233 265.515 378.23C265.677 381.608 265.311 384.917 263.92 387.383C263.587 387.971 263.22 388.549 262.634 388.989C264.524 386.656 264.666 382.65 264.274 379.139C264.676 378.901 264.501 378.703 264.141 378.412C263.747 378.093 263.048 377.628 262.59 377.472C262.558 377.63 262.637 377.785 262.723 377.927C262.809 378.069 263.001 378.193 263.033 378.321C263.1 378.592 262.939 379.187 262.856 379.503C262.582 380.548 262.004 381.696 261.482 382.473C261.298 382.457 261.427 382.228 261.305 382.17C261.108 382.177 261.227 382.4 261.127 382.473C260.517 381.761 259.996 380.583 259.709 379.503C259.607 379.117 259.447 378.652 259.532 378.321C259.599 378.057 260.014 377.818 259.975 377.502C259.57 377.566 259.191 377.842 258.867 378.078C258.544 378.314 258.209 378.567 257.981 378.836C258.008 378.969 258.197 378.991 258.247 379.109C257.956 382.662 257.966 386.66 259.931 388.959C259.724 388.94 259.627 388.76 259.532 388.656C257.702 386.655 257.211 383.569 257.006 380.382C256.961 379.677 256.914 378.988 257.05 378.291C257.088 378.144 257.316 378.361 257.449 378.26C258.148 377.9 258.779 377.492 259.443 377.108C258.865 377.169 258.235 377.15 257.715 377.29C257.263 377.412 256.769 377.749 256.341 377.987C255.04 378.712 253.67 379.499 252.574 380.321C252.35 383.026 253.256 385.205 254.347 387.11C252.773 385.013 251.314 382.68 251.466 379.503C252.066 379.892 252.978 379.259 253.46 379.018C254.802 378.347 256.235 377.481 257.272 376.745C258.022 376.82 258.904 376.759 259.532 376.654C258.749 375.971 256.742 376.314 255.543 376.563C254.739 376.73 253.989 376.97 253.505 377.23C253.045 377.019 252.693 376.734 252.264 376.502C252.578 375.963 252.645 375.057 252.884 374.441C253.47 372.936 254.384 371.604 255.499 370.38C255.469 370.613 255.234 370.813 255.1 371.016C254.129 372.494 253.49 374.325 253.46 376.472C254.485 376.313 255.707 376.117 256.917 375.896C257.312 375.824 257.72 375.676 258.025 375.684C258.518 375.696 258.981 376.044 259.532 376.048C259.401 375.763 259.151 375.56 258.867 375.381C257.954 375.452 256.935 375.34 256.12 375.441C256.036 375.452 255.927 375.485 255.809 375.532C255.82 375.528 255.546 375.653 255.588 375.654C255.403 375.652 254.953 375.215 254.746 375.169C255.172 373.308 256.133 371.814 257.05 370.289Z" fill="#000072"/>
<path fill-rule="evenodd" clip-rule="evenodd" d="M261.424 351.702V404.035Z" fill="#000072"/>
<path d="M261.424 351.702V404.035" stroke="#000072" stroke-width="3" stroke-miterlimit="10"/>
<path d="M245.098 351.345C245.098 351.345 247.973 394.215 243.762 401.806" stroke="#000072" stroke-width="3" stroke-miterlimit="10"/>
<path d="M232.173 350.523C232.173 350.523 238.658 370.358 229.287 397.151" stroke="#000072" stroke-width="3" stroke-miterlimit="10"/>
<path d="M276.333 351.702C276.333 351.702 273.326 389.688 277.675 402.621" stroke="#000072" stroke-width="3" stroke-miterlimit="10"/>
<path d="M291.67 350.523C291.67 350.523 284.796 388.19 295.005 397.151" stroke="#000072" stroke-width="3" stroke-miterlimit="10"/>
<path d="M218.734 358.054C218.734 358.054 225.21 351.872 233.714 358.054C233.714 358.054 238.147 351.918 245.518 358.898C245.518 358.898 249.538 351.256 261.371 358.054C261.371 358.054 266.365 351.667 275.325 358.054C275.325 358.054 282.364 350.962 290.609 357.702C290.609 357.702 297.961 349.697 304.325 356.847" stroke="#000072" stroke-width="3" stroke-miterlimit="10"/>
<path d="M260.482 367.875C260.251 367.711 260.021 367.556 259.793 367.41C251.733 362.243 245.885 368.019 245.885 368.019C239.907 361.811 234.362 368.019 234.362 368.019C225.069 357.172 220.051 368.019 220.051 368.019" stroke="#000072" stroke-width="3" stroke-miterlimit="10"/>
<path d="M260.25 367.991C260.25 367.991 267.597 362.099 275.325 367.991C275.325 367.991 282.835 360.698 289.408 368.317C289.408 368.317 299.167 360.805 302.807 368.166" stroke="#000072" stroke-width="3" stroke-miterlimit="10"/>
<path d="M220.051 386.132C220.051 386.132 226.014 376.305 232.289 386.966C232.289 386.966 243.544 379.189 245.939 390.05C245.939 390.05 255.258 385.311 261.771 393.111C261.771 393.111 268.672 385.037 276.665 391.195C276.665 391.195 282.002 378.846 291.036 388.374C291.036 388.374 296.602 378.076 302.808 383.952" stroke="#000072" stroke-width="3" stroke-miterlimit="10"/>
<path d="M219.441 392.008C219.441 392.008 227.207 384.129 230.602 393.111C230.602 393.111 241.787 388.053 244.91 397.151C244.91 397.151 256.468 391.087 261.279 400.789C261.279 400.789 268.118 394.343 276.338 398.722C276.338 398.722 283.894 387.353 292.64 394.064C292.64 394.064 298.862 383.431 302.586 390.05" stroke="#000072" stroke-width="3" stroke-miterlimit="10"/>
<path d="M151.371 477.602C151.371 477.602 185.788 441.41 229.29 444.904L239.179 475.289C239.179 475.289 228.49 520.401 161.104 505.201L151.371 477.602Z" fill="#000072"/>
<path d="M151.371 477.602C151.371 477.602 185.788 441.41 229.29 444.904L239.179 475.289C239.179 475.289 228.49 520.401 161.104 505.201L151.371 477.602Z" stroke="#000072" stroke-width="3" stroke-miterlimit="10"/>
<path d="M282.074 482.756L292.208 439.65L339.964 454.175L368.419 470.335V482.756L361.737 505.2C361.737 505.2 313.927 520.945 282.074 482.756Z" fill="#000072"/>
<path d="M282.074 482.756L292.208 439.65L339.964 454.175L368.419 470.335V482.756L361.737 505.2C361.737 505.2 313.927 520.945 282.074 482.756Z" stroke="#000072" stroke-width="3" stroke-miterlimit="10"/>
<path d="M40.3965 425.346L77.161 520.706" stroke="#000072" stroke-width="3" stroke-miterlimit="10"/>
<path d="M30.8594 437.385C30.8594 437.385 37.212 481.526 64.9426 519.987" stroke="#000072" stroke-width="3" stroke-miterlimit="10"/>
<path d="M55.3242 421.677C55.3242 421.677 84.0393 470.444 88.4758 521.477" stroke="#000072" stroke-width="3" stroke-miterlimit="10"/>
<path d="M73.748 425.346C73.748 425.346 91.1636 460.076 100.982 520.706" stroke="#000072" stroke-width="3" stroke-miterlimit="10"/>
<path d="M26.957 457.982C26.957 457.982 27.0296 448.215 33.9701 452.002C33.9701 452.002 36.5527 434.922 47.8974 445.766C47.8974 445.766 48.3271 428.426 64.1815 438.823C64.1815 438.823 68.7035 426.097 78.2003 437.385C78.2003 437.385 82.9102 434.781 85.9407 440.652" stroke="#000072" stroke-width="3" stroke-miterlimit="10"/>
<path d="M31.959 443.354C31.959 443.354 34.393 430.722 44.0826 434.908C44.0826 434.908 46.001 424.524 58.7787 427.977C58.7787 427.977 60.6588 421.186 75.8206 429.866" stroke="#000072" stroke-width="3" stroke-miterlimit="10"/>
<path d="M28.3086 463.179C28.3086 463.179 28.8436 453.391 36.2455 460.201C36.2455 460.201 38.5776 443.255 51.5093 454.175C51.5093 454.175 51.8556 437.582 66.9037 446.959C66.9037 446.959 72.4401 437.694 82.0897 445.766C82.0897 445.766 83.8129 440.944 88.628 445.766" stroke="#000072" stroke-width="3" stroke-miterlimit="10"/>
<path d="M28.3086 471.577C28.3086 471.577 31.3127 462.165 39.5322 470.335C39.5322 470.335 44.562 454.968 55.3226 465.368C55.3226 465.368 59.6576 444.855 72.8569 458.943C72.8569 458.943 74.9098 445.549 85.4077 455.459C85.4077 455.459 86.2045 447.234 91.739 453.838" stroke="#000072" stroke-width="3" stroke-miterlimit="10"/>
<path d="M30.8594 478.686C30.8594 478.686 33.6545 470.934 41.7989 476.499C41.7989 476.499 50.6538 464.262 58.7801 473.026C58.7801 473.026 67.5005 459.855 75.8219 469.864C75.8219 469.864 80.1501 457.506 88.7082 466.109C88.7082 466.109 91.8794 461.502 94.4411 465.488" stroke="#000072" stroke-width="3" stroke-miterlimit="10"/>
<path d="M33.8027 487.811C33.8027 487.811 38.7255 479.366 45.0193 484.41C45.0193 484.41 50.5343 474.785 62.5519 482.803C62.5519 482.803 68.2711 469.773 80.0389 479.613C80.0389 479.613 84.2943 468.526 91.7441 478.579C91.7441 478.579 91.7724 467.82 96.9879 473.026" stroke="#000072" stroke-width="3" stroke-miterlimit="10"/>
<path d="M37.4199 498.458V495.749C37.4199 495.749 40.7177 485.87 48.614 492.315C48.614 492.315 56.7671 482.967 65.3941 490.179C65.3941 490.179 74.309 478.506 82.3731 487.811C82.3731 487.811 87.2289 477.609 94.442 487.774" stroke="#000072" stroke-width="3" stroke-miterlimit="10"/>
<path d="M43.5645 501.771C43.5645 501.771 43.87 496.515 51.6927 498.458C51.6927 498.458 60.0777 492.103 68.4149 498.027C68.4149 498.027 74.2972 487.59 84.28 495.501C84.28 495.501 91.1924 487.368 95.9224 494.256" stroke="#000072" stroke-width="3" stroke-miterlimit="10"/>
<path d="M47.9023 508.33C47.9023 508.33 50.9243 503.732 56.4538 506.993C56.4538 506.993 63.6331 500.026 71.4266 505.824C71.4266 505.824 76.8481 497.605 85.9686 503.519C85.9686 503.519 91.7515 496.024 97.5244 501.771" stroke="#000072" stroke-width="3" stroke-miterlimit="10"/>
<path d="M53.8945 512.991C53.8945 512.991 54.843 508.123 60.0298 512.778C60.0298 512.778 66.089 508.886 73.7498 512.991C73.7498 512.991 82.1055 507.752 87.367 511.877C87.367 511.877 94.2078 506.736 98.7535 511.643" stroke="#000072" stroke-width="3" stroke-miterlimit="10"/>
<path d="M62.6504 516.393C62.6504 516.393 66.6798 512.161 75.822 517.229C75.822 517.229 80.8399 514.165 85.436 515.245C86.0925 515.399 86.7405 515.638 87.364 515.983" stroke="#000072" stroke-width="3" stroke-miterlimit="10"/>
<path d="M88.0508 517.258C88.0508 517.258 92.6994 513.202 100.596 515.995" stroke="#000072" stroke-width="3" stroke-miterlimit="10"/>
<path d="M96.9892 471.603C95.6022 474.756 100.984 524.378 100.984 524.378H168.116L166.687 520.705L151.375 491.487L141.791 464.04C120.072 460.96 98.7535 410.08 98.7535 410.08L83.6367 426.161L87.3671 434.907L94.4445 451.271L96.9892 471.603Z" fill="#000072"/>
<path d="M479.676 423.038L446.814 520.706" stroke="#000072" stroke-width="3" stroke-miterlimit="10"/>
<path d="M488.404 434.96C488.404 434.96 482.563 497.285 455.137 522.202" stroke="#000072" stroke-width="3" stroke-miterlimit="10"/>
<path d="M467.019 422.444C467.019 422.444 444.764 475.916 434.195 521.3" stroke="#000072" stroke-width="3" stroke-miterlimit="10"/>
<path d="M448.521 427.132C448.521 427.132 432.323 457.517 423.92 526.951" stroke="#000072" stroke-width="3" stroke-miterlimit="10"/>
<path d="M493.87 451.427C493.87 451.427 492.099 442.787 486.482 448.603C486.482 448.603 484.137 433.159 473.062 442.695C473.062 442.695 469.936 429.533 460.216 439.65C460.216 439.65 452.65 427.07 443.228 439.65C443.228 439.65 441.281 436.464 436.723 440.652" stroke="#000072" stroke-width="3" stroke-miterlimit="10"/>
<path d="M494.438 460.17C494.438 460.17 492.358 451.693 484.697 457.983C484.697 457.983 480.244 447.36 469.201 454.175C469.201 454.175 466.611 443.416 455.134 450.424C455.134 450.424 451.743 442.233 440.313 448.053C440.313 448.053 437.638 442.873 432.85 448.51" stroke="#000072" stroke-width="3" stroke-miterlimit="10"/>
<path d="M494.441 470.335C494.441 470.335 490.066 461.207 482.593 467.119C482.593 467.119 475.608 457.221 465.513 465.127C465.513 465.127 461.696 455.477 451.991 462.065C451.991 462.065 447.025 451.425 436.721 458.944C436.721 458.944 434.833 453.335 427.342 457.983" stroke="#000072" stroke-width="3" stroke-miterlimit="10"/>
<path d="M492.633 478.582C492.633 478.582 490.054 469.556 479.852 477.042C479.852 477.042 472.9 465.456 462.52 474.033C462.52 474.033 458.032 462.228 448.519 471.872C448.519 471.872 445.519 462.268 434.192 469.566C434.192 469.566 432.534 462.051 427.699 468.499C422.864 474.948 426.421 468.379 426.421 468.379" stroke="#000072" stroke-width="3" stroke-miterlimit="10"/>
<path d="M489.894 487.537C489.894 487.537 486.203 477.46 477.104 485.372C477.104 485.372 471.411 477.144 459.722 482.341C459.722 482.341 452.656 473.852 444.462 482.337C444.462 482.337 438.882 473.708 431.556 480.896C431.556 480.896 428.702 466.736 421.814 480.421" stroke="#000072" stroke-width="3" stroke-miterlimit="10"/>
<path d="M484.311 494.525C484.311 494.525 484.086 485.32 474.27 492.724C474.27 492.724 467.801 483.693 456.415 492.184C456.415 492.184 450.258 482.892 441.932 492.712C441.932 492.712 436.259 483.706 429.223 492.424C429.223 492.424 429.001 477.411 419.504 489.18" stroke="#000072" stroke-width="3" stroke-miterlimit="10"/>
<path d="M479.679 502.317C479.679 502.317 478.218 497.295 470.377 501.175C470.377 501.175 461.861 494.777 453.444 501.01C453.444 501.01 448.585 494.177 439.692 500.3C439.692 500.3 432.374 493.919 427.346 500.034C427.346 500.034 427.79 488.618 417.119 497.384" stroke="#000072" stroke-width="3" stroke-miterlimit="10"/>
<path d="M474.029 508.416C474.029 508.416 472.826 502.746 466.314 508.416C466.314 508.416 458.918 503.444 450.605 509.45C450.605 509.45 442.422 504.265 437.158 509.45C437.158 509.45 431.518 501.801 425.55 509.45C425.55 509.45 423.724 499.343 417.959 507.673" stroke="#000072" stroke-width="3" stroke-miterlimit="10"/>
<path d="M469.053 511.333C469.053 511.333 466.353 508.861 463.644 512.44C463.644 512.44 452.834 509.262 448.519 515.643C448.519 515.643 443.875 510.581 435.558 515.643C435.558 515.643 431.494 508.168 425.401 515.643C425.401 515.643 422.043 505.705 415.75 515.643" stroke="#000072" stroke-width="3" stroke-miterlimit="10"/>
<path d="M383.27 463.238L404.846 442.437L421.817 413.642L423.918 407.251L438.162 423.039L439.28 430.882L431.558 439.65L427.345 450.423L425.548 463.238V470.12L425.402 474.713C425.402 474.713 418.034 509.457 421.817 523.13L356.104 524.761L353.961 520.706L364.694 499.851L376.475 472.182L383.27 463.238Z" fill="#000072"/>
<path d="M371.213 328.361C371.213 328.361 318.624 430.444 312.719 458.944" stroke="#000072" stroke-width="3" stroke-miterlimit="10"/>
<path d="M354.434 336.199C354.434 336.199 303.027 439.13 307.574 447.839" stroke="#000072" stroke-width="3" stroke-miterlimit="10"/>
<path d="M403.515 330.576C403.515 330.576 364.432 437.064 346.254 461.947" stroke="#000072" stroke-width="3" stroke-miterlimit="10"/>
<path d="M332.994 351.702C332.994 351.702 344.887 339.111 347.827 349.621C347.827 349.621 355.813 337.859 362.319 345.916C362.319 345.916 377.815 333.434 380.296 347.398C380.296 347.398 394.385 336.294 395.558 351.702C395.558 351.702 400.674 350.254 400.55 363.198C400.55 363.198 405.145 373.255 403.812 377.162" stroke="#000072" stroke-width="3" stroke-miterlimit="10"/>
<path d="M352.586 339.917C352.586 339.917 361.899 331.504 367.214 336.199C367.214 336.199 379.745 323.493 386.278 334.063C386.278 334.063 398.669 331.873 398.889 342.952C398.889 342.952 403.906 349.249 403.515 351.702C403.515 351.702 397.772 390.303 386.787 413.242C386.787 413.242 372.223 463.229 357.392 467.229" stroke="#000072" stroke-width="3" stroke-miterlimit="10"/>
<path d="M331.213 359.455C331.213 359.455 338.659 350.158 343.074 359.455C343.074 359.455 353.992 348.926 354.434 359.455C354.434 359.455 371.668 351.119 373.943 361.578C373.943 361.578 386.668 352.505 389.24 368.018C389.24 368.018 401.473 363.441 397.593 379.226C397.593 379.226 404.38 377.45 403.1 387.377" stroke="#000072" stroke-width="3" stroke-miterlimit="10"/>
<path d="M324.506 371.076C324.506 371.076 335.325 360.965 336.687 372.864C336.687 372.864 347.164 362.66 347.737 375.559C347.737 375.559 366.455 365.946 366.028 379.226C366.028 379.226 379.104 375.058 381.451 387.556C381.451 387.556 392.745 383.788 393.921 394.334C393.921 394.334 402.252 393.815 401.471 400.548" stroke="#000072" stroke-width="3" stroke-miterlimit="10"/>
<path d="M318.758 383.952C318.758 383.952 327.095 370.028 332.162 383.87C332.162 383.87 338.905 377.784 341.966 386.406C341.966 386.406 358.365 380.932 359.801 393.111C359.801 393.111 370.898 386.137 376.43 397.151C376.43 397.151 389.3 395.025 391.171 402.621C391.171 402.621 397.041 400.793 399.146 407.25" stroke="#000072" stroke-width="3" stroke-miterlimit="10"/>
<path d="M315.473 392.019C315.473 392.019 323.187 387.984 325.487 397.151C325.487 397.151 333.476 390.158 336.685 398.546C336.685 398.546 349.766 393.541 353.961 404.034C353.961 404.034 368.132 398.658 372.739 408.556C372.739 408.556 382.35 406.001 387.593 412.522C387.593 412.522 393.968 410.128 394.838 416.639" stroke="#000072" stroke-width="3" stroke-miterlimit="10"/>
<path d="M309.945 402.787C309.945 402.787 320.64 394.838 320.622 408.173C320.622 408.173 329.913 401.596 331.21 409.807C331.21 409.807 345.673 405.612 349.247 416.639C349.247 416.639 361.29 407.861 367.233 421.259C367.233 421.259 379.623 414.624 382.433 425.558" stroke="#000072" stroke-width="3" stroke-miterlimit="10"/>
<path d="M306 415.554C306 415.554 314.265 406.638 317.024 416.638C317.024 416.638 324.634 410.197 327.442 419.342C327.442 419.342 340.753 415.649 345.248 425.558C345.248 425.558 357.197 420.429 363.012 430.616C363.012 430.616 373.342 424.03 378.677 434.059" stroke="#000072" stroke-width="3" stroke-miterlimit="10"/>
<path d="M302.283 423.971C302.283 423.971 310.754 418.729 313.42 425.558C313.42 425.558 320.839 420.43 323.695 428.051C323.695 428.051 338.248 425.057 340.505 434.059C340.505 434.059 353.788 430.259 358.945 439.226C358.945 439.226 369.038 435.651 374.881 442.743C374.881 442.743 377.246 441.326 377.241 447.839" stroke="#000072" stroke-width="3" stroke-miterlimit="10"/>
<path d="M299.057 431.898C299.057 431.898 308.109 427.255 309.944 433.208C309.944 433.208 319.657 429.315 320.44 435.976C320.44 435.976 336.911 432.246 337.888 441.965C337.888 441.965 352.472 437.596 354.626 447.838C354.626 447.838 367.27 442.635 370.063 454.174C370.063 454.174 374.996 451.836 376.425 458.944" stroke="#000072" stroke-width="3" stroke-miterlimit="10"/>
<path d="M143.299 320.929C143.299 320.929 190.177 398.013 201.132 447.839" stroke="#000072" stroke-width="3" stroke-miterlimit="10"/>
<path d="M170.188 335.809C170.188 335.809 205.209 399.989 216.837 442.463" stroke="#000072" stroke-width="3" stroke-miterlimit="10"/>
<path d="M120.744 333.161C120.744 333.161 161.57 448.953 174.939 457.982" stroke="#000072" stroke-width="3" stroke-miterlimit="10"/>
<path d="M119.113 354.775C119.113 354.775 152.133 457.959 161.983 463.237" stroke="#000072" stroke-width="3" stroke-miterlimit="10"/>
<path d="M123.695 337.824C123.695 337.824 124.606 325.712 134.471 332.726C134.471 332.726 138.401 324.049 149.576 331.621C149.576 331.621 152.543 326.975 161.982 330.757" stroke="#000072" stroke-width="3" stroke-miterlimit="10"/>
<path d="M121.326 361.578C121.326 361.578 122.21 353.055 129.171 356.387C129.171 356.387 131.326 344.577 143.305 352.833C143.305 352.833 145.528 340.409 158.751 348.012C158.751 348.012 167.061 337.125 176.631 348.012C176.631 348.012 183.634 341.504 188.748 348.012" stroke="#000072" stroke-width="3" stroke-miterlimit="10"/>
<path d="M119.113 351.345C119.113 351.345 122.184 346.157 125.872 348.012C125.872 348.012 129.849 336.732 138.437 341.757C138.437 341.757 143.879 333.58 153.699 338.884C153.699 338.884 163.924 334.176 170.191 337.095" stroke="#000072" stroke-width="3" stroke-miterlimit="10"/>
<path d="M117.994 377.739C117.994 377.739 119.175 372.003 125.873 375.304C125.873 375.304 126.796 366.633 134.471 371.114C134.471 371.114 136.44 359.21 150.101 366.581C150.101 366.581 151.48 352.691 165.978 361.578C165.978 361.578 172.354 350.927 182.011 358.608C182.011 358.608 183.088 352.542 190.488 357.701" stroke="#000072" stroke-width="3" stroke-miterlimit="10"/>
<path d="M119.113 391.134C119.113 391.134 122.169 381.643 129.969 387.377C129.969 387.377 131.582 377.255 139.6 383.952C139.6 383.952 145.541 374.647 154.24 379.226C154.24 379.226 162.068 366.605 172.217 373.837C172.217 373.837 179.586 364.115 187.542 369.855C187.542 369.855 187.826 366.147 195.356 368.018" stroke="#000072" stroke-width="3" stroke-miterlimit="10"/>
<path d="M121.373 400.548C121.373 400.548 123.473 390.789 133.357 397.15C133.357 397.15 137.948 390.475 143.928 394.97C143.928 394.97 149.072 383.682 159.701 390.175C159.701 390.175 166.835 379.896 178.295 386.367C178.295 386.367 183.532 377.783 193.62 382.7C193.62 382.7 192.764 377.656 200.425 380.867" stroke="#000072" stroke-width="3" stroke-miterlimit="10"/>
<path d="M125.254 410.081C125.254 410.081 127.555 401.517 135.534 405.815C135.534 405.815 140.288 396.853 147.509 403.61C147.509 403.61 150.692 392.216 164.202 400.005C164.202 400.005 170.649 390.06 182.526 394.924C182.526 394.924 187.241 385.52 197.873 391.272C197.873 391.272 200.083 386.604 205.451 390.337" stroke="#000072" stroke-width="3" stroke-miterlimit="10"/>
<path d="M125.873 418.583C125.873 418.583 129.111 407.617 137.955 410.081C137.955 410.081 145.901 405.802 149.907 409.72C149.907 409.72 161.331 401.135 167.198 407.25C167.198 407.25 179.003 397.917 186.157 403.862C186.157 403.862 194.218 397.09 202.109 401.806C202.109 401.806 206.433 397.037 211.774 400.548" stroke="#000072" stroke-width="3" stroke-miterlimit="10"/>
<path d="M216.842 413.642C216.842 413.642 208.62 402.775 206.712 412.997C206.712 412.997 192.676 404.586 191.352 416.639C191.352 416.639 177.565 406.282 172.716 419.814C172.716 419.814 158.618 412.061 155.034 422.977C155.034 422.977 146.043 413.57 144.654 425.559C144.654 425.559 139.959 423.766 139.139 428.418" stroke="#000072" stroke-width="3" stroke-miterlimit="10"/>
<path d="M220.551 422.977C220.551 422.977 212.949 414.58 210.926 424.099C210.926 424.099 199.752 416.747 195.026 426.688C195.026 426.688 182.975 420.598 178.292 431.898C178.292 431.898 165.401 424.71 161.981 437.101C161.981 437.101 153.128 433.517 150.099 442.463C150.099 442.463 145.547 441.257 143.299 447.838" stroke="#000072" stroke-width="3" stroke-miterlimit="10"/>
<path d="M222.319 430.174C222.319 430.174 216.582 419.805 213.902 432.715C213.902 432.715 206.782 428.287 198.446 437.385C198.446 437.385 187.783 433.732 181.929 440.792C181.929 440.792 173.484 438.468 167.356 444.666C167.019 445.006 166.69 445.372 166.369 445.766" stroke="#000072" stroke-width="3" stroke-miterlimit="10"/>
<path d="M166.688 445.372C166.688 445.372 158.812 444.656 154.72 452.001C154.72 452.001 149.037 452.244 146.413 458.943C143.789 465.642 145.182 457.983 145.182 457.983" stroke="#000072" stroke-width="3" stroke-miterlimit="10"/>
<path fill-rule="evenodd" clip-rule="evenodd" d="M260.718 48.5712C351.184 48.5712 420.777 142.761 420.777 221.41C420.777 300.06 293.22 331.842 260.718 333.392C228.216 334.943 94.0273 297.754 94.0273 219.104C94.0273 140.453 170.252 48.5712 260.718 48.5712Z" fill="#FF850B"/>
<path d="M260.72 52.396C170.502 52.396 97.8526 143.595 97.8526 219.104C97.8526 238.739 106.773 257.204 124.368 273.985C163.558 311.365 235.062 329.611 258.704 329.613C259.354 329.613 259.963 329.6 260.538 329.572C277.667 328.755 317.128 319.937 351.228 302.892C381.213 287.904 416.955 261.602 416.955 221.41C416.955 143.251 348.709 52.396 260.72 52.396ZM258.801 337.26C233.439 337.26 160.349 318.873 119.091 279.521C99.9246 261.24 90.2051 240.912 90.2051 219.104C90.2051 179.736 109.061 135.863 140.645 101.745C174.177 65.522 217.942 44.7467 260.72 44.7467C303.765 44.7467 345.263 65.4358 377.572 103.003C407.021 137.244 424.603 181.508 424.603 221.41C424.603 256.317 400.412 286.859 354.646 309.735C319.551 327.277 278.7 336.364 260.902 337.213C260.245 337.245 259.542 337.26 258.801 337.26" fill="#000072"/>
<g opacity="0.5">
<g opacity="0.5">
<path opacity="0.5" fill-rule="evenodd" clip-rule="evenodd" d="M260.718 48.5719C316.318 48.5719 364.027 84.1558 392.547 129.838C392.844 131.315 393.13 132.797 393.38 134.291C367.342 96.11 326.743 70.9329 281.781 64.1413C284.664 65.2308 286.335 66.5247 286.335 67.9135C286.335 71.7955 273.265 74.9423 257.142 74.9423C241.022 74.9423 227.952 71.7955 227.952 67.9135C227.952 66.5247 229.62 65.2308 232.505 64.1413C187.541 70.9344 146.946 96.1129 120.908 134.291L121.052 133.486C151.076 85.9789 202.996 48.5719 260.718 48.5719Z" fill="white"/>
</g>
</g>
<path fill-rule="evenodd" clip-rule="evenodd" d="M416.478 245.577C393.983 306.656 289.657 332.013 260.715 333.393C232.069 334.76 124.46 306.028 99.3184 245.353C101.246 212.303 118.031 203.271 149.071 219.421C161.836 226.061 174.822 232.988 185.111 227.714C243.843 197.601 279.705 203.278 319.905 227.714C338.703 239.142 357.05 222.095 368.56 216.898C405.219 200.34 422.038 211.921 416.478 245.577Z" fill="white"/>
<g opacity="0.300003">
<g opacity="0.300003">
<path opacity="0.300003" fill-rule="evenodd" clip-rule="evenodd" d="M420.083 207.676C420.538 212.292 420.779 216.878 420.779 221.411C420.779 224.308 420.586 227.132 420.252 229.904L420.286 229.075C415.818 281.563 310.158 321.639 253.316 324.875C205.867 327.577 111.1 276.483 95.1657 229.075C95.1952 230.058 95.2457 231.039 95.2901 232.019C94.4783 227.843 94.0293 223.543 94.0293 219.104C94.0293 215.571 94.1893 212.01 94.49 208.431L94.7375 207.664C131.779 260.937 192.544 292.702 257.416 292.702C322.281 292.702 383.041 260.939 420.083 207.676Z" fill="#000072"/>
</g>
</g>
<path fill-rule="evenodd" clip-rule="evenodd" d="M202.189 182.544C197.13 180.287 191.952 176.506 186.661 171.207C177.487 171.624 170.148 181.426 170.148 193.456C170.148 205.751 177.812 215.719 187.265 215.719C196.72 215.719 204.383 205.751 204.383 193.456C204.383 189.491 203.586 185.769 202.189 182.544Z" fill="#000072"/>
<path d="M345.844 161.581C339.67 169.785 333.599 176.129 327.634 180.613C318.858 187.209 309.359 188.364 308.307 181.099C313.027 180.558 317.947 178.363 323.063 174.518C335.674 165.038 339.617 158.934 345.844 161.581Z" fill="#000072"/>
<path fill-rule="evenodd" clip-rule="evenodd" d="M317.066 182.543C322.124 180.287 327.303 176.506 332.596 171.207C341.769 171.623 349.106 181.425 349.106 193.455C349.106 205.75 341.444 215.718 331.989 215.718C322.535 215.718 314.871 205.75 314.871 193.455C314.871 189.49 315.668 185.768 317.066 182.543" fill="#000072"/>
<path fill-rule="evenodd" clip-rule="evenodd" d="M324.915 187.784C322.138 187.784 319.889 190.182 319.889 193.139C319.889 196.097 322.138 198.495 324.915 198.495C327.69 198.495 329.939 196.097 329.939 193.139C329.939 190.182 327.69 187.784 324.915 187.784Z" fill="white"/>
<path fill-rule="evenodd" clip-rule="evenodd" d="M257.403 197.361C269.645 197.361 279.568 203.979 279.568 212.142C279.568 220.306 269.645 226.924 257.403 226.924C245.161 226.924 235.238 220.306 235.238 212.142C235.238 203.979 245.161 197.361 257.403 197.361Z" fill="#000072"/>
<path d="M278.598 245.038C270.797 245.038 263.25 242.136 257.459 236.95C250.992 242.841 242.077 245.582 233.314 244.188C223.135 242.57 214.503 235.592 210.784 225.975C210.022 224.005 211.001 221.79 212.971 221.028C214.939 220.267 217.153 221.246 217.916 223.216C220.655 230.3 227.015 235.442 234.514 236.634C242.017 237.826 249.656 234.911 254.456 229.028C255.173 228.149 256.243 227.634 257.377 227.622C258.52 227.623 259.59 228.101 260.327 228.964C265.334 234.833 272.898 237.951 280.593 237.305C288.279 236.66 295.229 232.322 299.187 225.7C300.27 223.886 302.621 223.295 304.43 224.38C306.242 225.463 306.834 227.812 305.75 229.625C300.532 238.356 291.367 244.077 281.233 244.927C280.353 245.002 279.474 245.038 278.598 245.038Z" fill="#000072"/>
<path fill-rule="evenodd" clip-rule="evenodd" d="M257.42 231.447C265.391 239.025 273.221 242.249 280.914 241.117C282.817 291.07 232.193 289.035 233.916 240.411C243.347 241.609 251.179 238.622 257.42 231.447Z" fill="#000072"/>
<path d="M237.722 244.494C238.101 257.222 242.614 267.229 250.131 271.681C255.097 274.621 260.708 274.662 265.528 271.791C272.724 267.504 276.862 257.908 277.128 245.149C270.622 244.941 264.086 242.124 257.613 236.739C252.042 241.897 245.435 244.495 237.896 244.495C237.839 244.495 237.78 244.495 237.722 244.494ZM257.989 281.55C253.972 281.55 249.935 280.454 246.235 278.263C235.35 271.816 229.467 257.97 230.094 240.275L230.243 236.09L234.396 236.617C242.561 237.652 249.138 235.139 254.534 228.936L257.157 225.921L260.053 228.674C267.192 235.462 273.841 238.295 280.357 237.332L284.572 236.712L284.734 240.971C285.403 258.544 279.829 272.173 269.441 278.363C265.874 280.488 261.942 281.55 257.989 281.55Z" fill="#000072"/>
<path fill-rule="evenodd" clip-rule="evenodd" d="M257.841 259.071C251.034 259.071 244.64 262.331 240.643 267.837C249.846 280.947 266.164 281.162 274.956 267.726C270.952 262.286 264.599 259.071 257.841 259.071Z" fill="#FF0066"/>
<path d="M245.59 267.924C249.135 271.833 253.593 273.952 258.219 273.909C262.69 273.836 266.815 271.725 270.06 267.903C266.827 264.73 262.425 262.895 257.837 262.895C253.231 262.895 248.825 264.736 245.59 267.924ZM257.981 281.561C250.107 281.561 242.663 277.376 237.51 270.034L235.941 267.799L237.546 265.589C242.248 259.112 249.833 255.246 257.837 255.246C265.776 255.246 273.325 259.063 278.031 265.458L279.605 267.597L278.152 269.82C273.353 277.152 266.134 281.43 258.344 281.557C258.223 281.559 258.102 281.561 257.981 281.561Z" fill="#000072"/>
<path fill-rule="evenodd" clip-rule="evenodd" d="M402.16 141.379C377.605 100.789 348.165 73.3088 313.838 58.9415C381.173 -35.4411 410.613 -7.96206 402.16 141.379Z" fill="#FF850B"/>
<path d="M319.707 57.3356C349.843 71.0941 376.445 95.2112 398.95 129.164C403.056 37.1444 390.579 12.6552 379.101 8.61715C370.341 5.53767 352.974 11.6615 319.707 57.3356ZM405.278 153.922L398.888 143.359C374.874 103.665 345.762 76.4499 312.361 62.4694L307.941 60.6197L310.724 56.7191C341.525 13.5461 364.714 -4.55528 381.638 1.40124C403.226 8.99692 410.959 53.5443 405.976 141.595L405.278 153.922Z" fill="#000072"/>
<path fill-rule="evenodd" clip-rule="evenodd" d="M307.995 146.316C313.658 143.994 319.367 144.835 320.745 148.197C322.123 151.559 318.649 156.169 312.987 158.493C307.324 160.815 301.615 159.972 300.237 156.61C298.859 153.249 302.334 148.639 307.995 146.316Z" fill="white"/>
<path fill-rule="evenodd" clip-rule="evenodd" d="M209.327 146.092C203.664 143.768 197.955 144.611 196.577 147.973C195.199 151.335 198.672 155.944 204.335 158.267C209.997 160.589 215.706 159.747 217.084 156.386C218.462 153.024 214.989 148.414 209.327 146.092Z" fill="white"/>
<path fill-rule="evenodd" clip-rule="evenodd" d="M189.786 187.784C187.009 187.784 184.76 190.182 184.76 193.139C184.76 196.097 187.009 198.495 189.786 198.495C192.561 198.495 194.81 196.097 194.81 193.139C194.81 190.182 192.561 187.784 189.786 187.784Z" fill="white"/>
<path fill-rule="evenodd" clip-rule="evenodd" d="M115.229 143.312C139.782 102.721 169.223 75.2424 203.549 60.8736C136.215 -33.5089 106.775 -6.02839 115.229 143.312Z" fill="#FF850B"/>
<path d="M142.374 9.881C140.837 9.881 139.481 10.1298 138.285 10.5509C126.808 14.5892 114.331 39.0778 118.437 131.098C140.941 97.1456 167.542 73.0285 197.679 59.2686C168.955 19.8322 152.083 9.881 142.374 9.881ZM112.11 155.857L111.412 143.529C106.427 55.4781 114.16 10.9309 135.748 3.33459C152.661 -2.61469 175.858 15.4763 206.661 58.6521L209.444 62.5526L205.025 64.4023C171.622 78.3843 142.51 105.6 118.5 145.293L112.11 155.857Z" fill="#000072"/>
<g opacity="0.649994">
<g opacity="0.649994">
<path opacity="0.649994" fill-rule="evenodd" clip-rule="evenodd" d="M195.121 64.7236C197.899 63.3495 200.713 62.0673 203.559 60.8742C161.827 2.3778 134.658 -9.28596 122.037 25.8358C135.478 1.13865 159.837 14.0995 195.117 64.7207L195.121 64.7236Z" fill="white"/>
</g>
</g>
<path fill-rule="evenodd" clip-rule="evenodd" d="M133.616 115.797C145.585 100.988 159.15 88.1695 174.313 77.3449C140.324 11.135 126.757 23.9519 133.616 115.797Z" fill="#000072"/>
<path d="M142.364 39.5674C142.196 39.5674 142.082 39.5897 142.015 39.6085C141.606 39.7238 137.973 41.2212 136.419 58.0839C135.372 69.4456 135.495 85.5787 136.783 106.127C146.665 94.9422 157.599 84.9048 169.405 76.1828C151.521 41.9882 144.102 39.5674 142.364 39.5674ZM130.522 125.707L129.804 116.081C124.585 46.1928 132 34.483 139.943 32.2454C149.441 29.5632 160.742 42.5334 177.715 75.5969L179.225 78.5376L176.535 80.4575C161.73 91.0265 148.29 103.725 136.589 118.201L130.522 125.707Z" fill="#000072"/>
<g opacity="0.300003">
<g opacity="0.300003">
<path opacity="0.300003" fill-rule="evenodd" clip-rule="evenodd" d="M138.028 37.951C125.624 47.2299 117.613 72.3343 113.994 113.262C114.212 122.661 114.623 132.676 115.224 143.312C117.058 139.994 118.998 136.714 121.047 133.485L120.904 134.29C130.812 119.173 141.47 106.067 152.874 94.971C146.205 101.263 139.921 108.037 134.021 115.291C133.905 115.433 133.79 115.574 133.674 115.719C133.664 115.731 133.654 115.744 133.642 115.761C133.631 115.773 133.623 115.785 133.612 115.796C130.289 71.2954 131.761 45.3474 138.028 37.951ZM379.348 36.0168C391.753 45.2969 399.764 70.4001 403.381 111.327C403.164 120.726 402.753 130.743 402.153 141.378C400.317 138.06 398.377 134.781 396.328 131.551L396.472 132.356C386.565 117.239 375.907 104.133 364.501 93.0383C371.172 99.3303 377.454 106.104 383.354 113.358C383.47 113.499 383.586 113.641 383.701 113.785C383.712 113.798 383.722 113.812 383.734 113.826C383.744 113.84 383.753 113.85 383.763 113.864C387.088 69.3625 385.614 43.413 379.348 36.0168" fill="#000072"/>
</g>
</g>
<g opacity="0.649994">
<g opacity="0.649994">
<path opacity="0.649994" fill-rule="evenodd" clip-rule="evenodd" d="M322.282 62.7891C319.504 61.4149 316.69 60.1328 313.844 58.9411C355.576 0.444703 382.746 -11.2206 395.367 23.9012C381.927 -0.795947 357.566 12.1662 322.287 62.7876L322.282 62.7891Z" fill="white"/>
</g>
</g>
<path fill-rule="evenodd" clip-rule="evenodd" d="M383.767 113.864C371.798 99.0537 358.233 86.2353 343.07 75.4105C377.059 9.20073 390.627 22.0189 383.767 113.864Z" fill="#000072"/>
<path d="M347.981 74.2486C359.789 82.9721 370.724 93.0106 380.603 104.194C381.891 83.6452 382.014 67.5125 380.967 56.1504C379.412 39.2876 375.781 37.7898 375.372 37.6748C374.616 37.4653 367.589 36.7592 347.981 74.2486ZM386.863 123.775L380.797 116.268C369.099 101.794 355.66 89.0949 340.852 78.5234L338.162 76.6035L339.672 73.663C356.644 40.6019 367.935 27.6323 377.444 30.312C385.386 32.5494 392.802 44.2593 387.582 114.149L386.863 123.775Z" fill="#000072"/>
<path d="M142.374 9.88045C140.837 9.88045 139.481 10.1293 138.285 10.5504C126.807 14.5887 114.329 39.0779 118.436 131.098C140.941 97.1451 167.541 73.0275 197.678 59.268C168.954 19.8316 152.083 9.88045 142.374 9.88045ZM112.107 155.856L111.409 143.529C106.426 55.4775 114.16 10.9297 135.747 3.33404C152.661 -2.61524 175.858 15.4757 206.661 58.6515L209.444 62.5521L205.025 64.4018C171.621 78.3838 142.51 105.599 118.498 145.293L112.107 155.856Z" fill="#000072"/>
<path d="M260.72 52.396C170.502 52.396 97.8526 143.595 97.8526 219.104C97.8526 238.739 106.773 257.204 124.368 273.985C163.558 311.365 235.062 329.611 258.704 329.613C259.354 329.613 259.963 329.6 260.538 329.572C277.667 328.755 317.128 319.937 351.228 302.892C381.213 287.904 416.955 261.602 416.955 221.41C416.955 143.251 348.709 52.396 260.72 52.396ZM258.801 337.26C233.439 337.26 160.349 318.873 119.091 279.521C99.9246 261.24 90.2051 240.912 90.2051 219.104C90.2051 179.736 109.061 135.863 140.645 101.745C174.177 65.522 217.942 44.7467 260.72 44.7467C303.765 44.7467 345.263 65.4358 377.572 103.003C407.021 137.244 424.603 181.508 424.603 221.41C424.603 256.317 400.412 286.859 354.646 309.735C319.551 327.277 278.7 336.364 260.902 337.213C260.245 337.245 259.542 337.26 258.801 337.26" fill="#000072"/>
<g opacity="0.559998">
<g opacity="0.559998">
<path opacity="0.559998" fill-rule="evenodd" clip-rule="evenodd" d="M264.62 203.284C267.962 204.166 270.435 205.773 270.145 206.876C269.854 207.977 266.91 208.156 263.567 207.274C260.225 206.394 257.75 204.786 258.041 203.683C258.331 202.582 261.277 202.402 264.62 203.284Z" fill="white"/>
</g>
</g>
<path d="M176.189 161.581C182.365 169.785 188.436 176.129 194.401 180.613C203.177 187.209 212.677 188.364 213.729 181.099C209.008 180.558 204.089 178.363 198.971 174.518C186.361 165.038 182.417 158.934 176.189 161.581Z" fill="#000072"/>
<path d="M319.707 57.3356C349.843 71.0941 376.445 95.2112 398.95 129.164C403.056 37.1444 390.579 12.6552 379.101 8.61715C370.341 5.53767 352.974 11.6615 319.707 57.3356ZM405.278 153.922L398.888 143.359C374.874 103.665 345.762 76.4499 312.361 62.4694L307.941 60.6197L310.724 56.7191C341.525 13.5461 364.714 -4.55528 381.638 1.40124C403.226 8.99692 410.959 53.5443 405.976 141.595L405.278 153.922Z" fill="#000072"/>
</svg>
