<svg width="30" height="30" viewBox="0 0 30 30" fill="none" xmlns="http://www.w3.org/2000/svg">
<rect width="30" height="30" rx="15" fill="#E11D2E"/>
<g opacity="0.7">
<path d="M21.2009 8H17.2009C16.7591 8 16.4009 8.35817 16.4009 8.8V12.8C16.4009 13.2418 16.7591 13.6 17.2009 13.6H21.2009C21.6427 13.6 22.0009 13.2418 22.0009 12.8V8.8C22.0009 8.35817 21.6427 8 21.2009 8Z" fill="white"/>
<path d="M12.6003 16.6001H8.60029C8.15846 16.6001 7.80029 16.9583 7.80029 17.4001V21.4001C7.80029 21.8419 8.15846 22.2001 8.60029 22.2001H12.6003C13.0421 22.2001 13.4003 21.8419 13.4003 21.4001V17.4001C13.4003 16.9583 13.0421 16.6001 12.6003 16.6001Z" fill="white"/>
<path d="M10.6003 13.6C10.968 13.6 11.3321 13.5276 11.6718 13.3869C12.0115 13.2461 12.3202 13.0399 12.5802 12.7799C12.8402 12.5199 13.0464 12.2112 13.1871 11.8715C13.3279 11.5318 13.4003 11.1677 13.4003 10.8C13.4003 10.4323 13.3279 10.0682 13.1871 9.72848C13.0464 9.38877 12.8402 9.0801 12.5802 8.8201C12.3202 8.5601 12.0115 8.35385 11.6718 8.21314C11.3321 8.07242 10.968 8 10.6003 8C9.85768 8 9.14549 8.295 8.62039 8.8201C8.09529 9.3452 7.80029 10.0574 7.80029 10.8C7.80029 11.5426 8.09529 12.2548 8.62039 12.7799C9.14549 13.305 9.85768 13.6 10.6003 13.6Z" fill="white"/>
<path d="M22.0009 21.4001L19.2009 16.6001L16.4009 21.4001C16.4009 21.8419 16.7591 22.2001 17.2009 22.2001H21.2009C21.6427 22.2001 22.0009 21.8419 22.0009 21.4001Z" fill="white"/>
</g>
</svg>
