<svg width="30" height="30" viewBox="0 0 30 30" fill="none" xmlns="http://www.w3.org/2000/svg">
<rect width="30" height="30" rx="15" fill="#FF9429"/>
<path fill-rule="evenodd" clip-rule="evenodd" d="M17.7 7.7998C18.8754 7.7998 19.8762 8.5513 20.247 9.5998H12.3C11.1065 9.5998 9.96193 10.0739 9.11802 10.9178C8.27411 11.7617 7.8 12.9063 7.8 14.0998V18.4468C7.27343 18.2605 6.81758 17.9155 6.49522 17.4594C6.17285 17.0032 5.99984 16.4584 6 15.8998V10.4998C6 9.78372 6.28446 9.09696 6.79081 8.59062C7.29716 8.08427 7.98392 7.7998 8.7 7.7998H17.7ZM21.3 11.3998H12.3C11.5839 11.3998 10.8972 11.6843 10.3908 12.1906C9.88446 12.697 9.6 13.3837 9.6 14.0998V19.4998C9.6 20.2159 9.88446 20.9026 10.3908 21.409C10.8972 21.9153 11.5839 22.1998 12.3 22.1998H21.3C22.0161 22.1998 22.7028 21.9153 23.2092 21.409C23.7155 20.9026 24 20.2159 24 19.4998V14.0998C24 13.3837 23.7155 12.697 23.2092 12.1906C22.7028 11.6843 22.0161 11.3998 21.3 11.3998ZM18.6 16.7998C18.6 17.2772 18.4104 17.735 18.0728 18.0726C17.7352 18.4102 17.2774 18.5998 16.8 18.5998C16.3226 18.5998 15.8648 18.4102 15.5272 18.0726C15.1896 17.735 15 17.2772 15 16.7998C15 16.3224 15.1896 15.8646 15.5272 15.527C15.8648 15.1894 16.3226 14.9998 16.8 14.9998C17.2774 14.9998 17.7352 15.1894 18.0728 15.527C18.4104 15.8646 18.6 16.3224 18.6 16.7998Z" fill="white"/>
</svg>
