<svg width="30" height="30" viewBox="0 0 30 30" fill="none" xmlns="http://www.w3.org/2000/svg">
<rect width="30" height="30" rx="15" fill="#0096F2"/>
<path opacity="0.7" d="M14.9998 7.7998C11.0298 7.7998 7.7998 11.0301 7.7998 14.9998C7.7998 18.9757 11.0239 22.1998 14.9998 22.1998C18.9698 22.1998 22.1998 18.9698 22.1998 14.9998C22.1998 11.0235 18.9761 7.7998 14.9998 7.7998ZM14.9998 18.6344C14.1368 18.6344 13.3092 18.2916 12.699 17.6814C12.0888 17.0712 11.746 16.2435 11.746 15.3806C11.746 14.5176 12.0888 13.69 12.699 13.0798C13.3092 12.4695 14.1368 12.1267 14.9998 12.1267H15.1455L14.6571 11.6387C14.5662 11.5478 14.5152 11.4245 14.5152 11.296C14.5152 11.1674 14.5662 11.0442 14.6571 10.9533C14.748 10.8624 14.8713 10.8113 14.9998 10.8113C15.1283 10.8113 15.2516 10.8624 15.3425 10.9533L16.7271 12.3379C16.7721 12.3829 16.8078 12.4363 16.8322 12.4951C16.8565 12.5539 16.8691 12.6169 16.8691 12.6806C16.8691 12.7442 16.8565 12.8072 16.8322 12.866C16.8078 12.9248 16.7721 12.9783 16.7271 13.0233L15.3425 14.4079C15.2516 14.4988 15.1283 14.5498 14.9998 14.5498C14.8713 14.5498 14.748 14.4988 14.6571 14.4079C14.5662 14.317 14.5152 14.1937 14.5152 14.0652C14.5152 13.9367 14.5662 13.8134 14.6571 13.7225L15.2802 13.0994C15.1978 13.096 15.1037 13.096 14.9998 13.096C14.548 13.096 14.1062 13.2299 13.7305 13.481C13.3548 13.732 13.062 14.0888 12.8891 14.5063C12.7162 14.9237 12.6709 15.3831 12.7591 15.8263C12.8472 16.2695 13.0648 16.6765 13.3843 16.996C13.7038 17.3155 14.1109 17.5331 14.5541 17.6213C14.9973 17.7094 15.4566 17.6642 15.8741 17.4913C16.2915 17.3184 16.6484 17.0255 16.8994 16.6498C17.1504 16.2741 17.2844 15.8324 17.2844 15.3806C17.2844 15.252 17.3355 15.1288 17.4264 15.0379C17.5172 14.947 17.6405 14.896 17.769 14.896C17.8976 14.896 18.0208 14.947 18.1117 15.0379C18.2026 15.1288 18.2537 15.252 18.2537 15.3806C18.2526 16.2432 17.9095 17.0703 17.2995 17.6803C16.6895 18.2903 15.8625 18.6334 14.9998 18.6344Z" fill="white"/>
</svg>
